<svg width="91" height="22" viewBox="0 0 91 22" fill="none" xmlns="http://www.w3.org/2000/svg">
<rect x="4" y="4" width="7" height="14" rx="3.5" fill="white"/>
<path d="M28.851 16.17C32.2 16.17 34.716 13.535 34.716 10.05C34.716 6.56499 32.183 3.92999 28.834 3.92999C25.468 3.92999 22.952 6.56499 22.952 10.05C22.952 13.535 25.468 16.17 28.851 16.17ZM28.851 14.64C26.403 14.64 24.601 12.651 24.601 10.05C24.601 7.44899 26.403 5.45999 28.834 5.45999C31.265 5.45999 33.084 7.44899 33.084 10.05C33.084 12.651 31.282 14.64 28.851 14.64Z" fill="white"/>
<path d="M40.8817 7.32999C39.5387 7.32999 38.8247 8.04399 38.3827 8.68999H38.2467L38.0087 7.49999H36.8357V16H38.3827V11.597C38.3827 9.60799 39.5387 8.79199 40.7287 8.79199C40.9837 8.79199 41.3067 8.82599 41.4257 8.85999V7.32999H40.8817Z" fill="white"/>
<path d="M43.9433 6.17399C44.5043 6.17399 44.9633 5.71499 44.9633 5.15399C44.9633 4.57599 44.5043 4.13399 43.9433 4.13399C43.3823 4.13399 42.9063 4.57599 42.9063 5.15399C42.9063 5.71499 43.3823 6.17399 43.9433 6.17399ZM44.6743 7.49999H43.1613V16H44.6743V7.49999Z" fill="white"/>
<path d="M54.307 7.80599L53.525 6.81999C53.287 7.14299 52.777 7.66999 52.267 7.97599C51.689 7.56799 50.958 7.32999 50.108 7.32999C48.221 7.32999 46.946 8.57099 46.946 10.288C46.946 11.155 47.303 11.886 47.881 12.379C47.269 12.685 46.759 13.195 46.759 13.96C46.759 14.708 47.201 15.201 47.847 15.439L46.504 16.51C46.487 18.091 47.762 19.57 50.295 19.57C52.522 19.57 53.967 18.533 53.967 16.867C53.967 15.32 52.913 14.402 50.941 14.402H49.513C48.544 14.402 48.119 14.096 48.119 13.62C48.119 13.28 48.425 13.059 48.765 12.889C49.173 13.059 49.649 13.144 50.159 13.144C52.029 13.144 53.423 12.022 53.423 10.322C53.423 9.70999 53.253 9.16599 52.964 8.72399C53.576 8.45199 54.086 8.07799 54.307 7.80599ZM50.193 12.022C49.122 12.022 48.391 11.223 48.391 10.237C48.391 9.21699 49.122 8.43499 50.21 8.43499C51.281 8.43499 51.961 9.21699 51.961 10.22C51.961 11.223 51.281 12.022 50.193 12.022ZM52.488 16.901C52.488 17.853 51.587 18.329 50.38 18.329C48.799 18.329 48.119 17.547 47.983 16.663L49.343 15.592H50.72C51.689 15.592 52.488 15.966 52.488 16.901Z" fill="white"/>
<path d="M56.3778 6.17399C56.9388 6.17399 57.3978 5.71499 57.3978 5.15399C57.3978 4.57599 56.9388 4.13399 56.3778 4.13399C55.8168 4.13399 55.3408 4.57599 55.3408 5.15399C55.3408 5.71499 55.8168 6.17399 56.3778 6.17399ZM57.1088 7.49999H55.5958V16H57.1088V7.49999Z" fill="white"/>
<path d="M63.595 7.32999C62.048 7.32999 61.351 8.04399 60.994 8.57099H60.858L60.62 7.49999H59.447V16H61.011V11.121C61.011 9.40399 62.048 8.70699 63.085 8.70699C64.309 8.70699 65.176 9.52299 65.176 11.206V16H66.74V10.917C66.74 8.55399 65.363 7.32999 63.595 7.32999Z" fill="white"/>
<path d="M75.4367 13.909V10.696C75.4367 8.55399 74.1107 7.32999 72.1897 7.32999C70.2347 7.32999 69.0447 8.60499 68.9087 10.186H70.3367C70.4557 9.40399 70.9657 8.51999 72.2067 8.51999C73.3797 8.51999 73.9917 9.38699 73.9917 10.645V10.849L72.3767 10.985C70.0477 11.155 68.5177 12.022 68.5177 13.79C68.5177 15.388 69.7927 16.17 71.3737 16.17C72.5467 16.17 73.6347 15.66 74.2977 14.861C74.5187 15.694 75.1137 16 75.9467 16H76.2187V14.759C75.7087 14.759 75.4367 14.572 75.4367 13.909ZM71.5437 14.929C70.7447 14.929 70.0307 14.572 70.0307 13.705C70.0307 12.787 70.9657 12.209 72.5807 12.073L73.9917 11.971V12.566C73.9917 14.181 72.7337 14.929 71.5437 14.929Z" fill="white"/>
<path d="M81.7825 15.779L81.3915 14.589C81.2215 14.708 80.9665 14.827 80.6435 14.827C80.1675 14.827 79.7935 14.538 79.7935 13.756V8.74099H81.8165V7.49999H79.7935V5.35799H78.4505V6.44599C78.4505 7.26199 78.0255 7.63599 77.1415 7.63599H76.6485V8.74099H78.2975V13.892C78.2975 15.643 79.2665 16.17 80.3885 16.17C81.0175 16.17 81.4595 15.983 81.7825 15.779Z" fill="white"/>
<path d="M86.7248 7.32999C84.3958 7.32999 82.6788 9.14899 82.6788 11.699C82.6788 14.402 84.2768 16.17 86.8608 16.17C88.5778 16.17 90.1248 15.286 90.5668 13.535H89.1218C88.7308 14.453 87.8298 14.878 86.8608 14.878C85.1098 14.878 84.2428 13.722 84.1408 12.073H90.5838C90.7878 8.82599 88.9688 7.32999 86.7248 7.32999ZM84.1918 10.917C84.4468 9.50599 85.3818 8.57099 86.7758 8.57099C88.2548 8.57099 89.1388 9.65899 89.1728 10.917H84.1918Z" fill="white"/>
<rect x="1" y="1" width="13" height="20" rx="6.5" stroke="white" stroke-width="2"/>
</svg>
